# xmcd
#
# Track frame offsets: 
#        150
#        14436
#        28645
#        38362
#        50166
#        54266
#        64538
#        73477
#        84648
#        97649
#        102445
#        106347
#        113762
#        129927
#        137415
#        148114
#        158440
#        166364
#        174420
#        186208
#        188937
#
# Disc length: 2674 seconds
#
# Revision: 0
# Processed by: cddbd v1.5.2PL0 Copyright (c) Steve Scherf et al.
# Submitted via: ExactAudioCopyFreeDBPlugin 1.0
#
DISCID=130a7015
DTITLE=Nitty Gritty Dirt Band - Uncle Charlie and His Dog Teddy
DYEAR=1970
DGENRE=Country
TTITLE0=Some of Shelly's Blues
TTITLE1=Prodigal's Return
TTITLE2=The Cure
TTITLE3=Travelin' Mood
TTITLE4=Chicken Reel
TTITLE5=Yukon Railroad
TTITLE6=Livin' Without You
TTITLE7=Clinch Mountain Backstep
TTITLE8=Rave On
TTITLE9=Billy in the Low Ground
TTITLE10=Jessie James
TTITLE11=Uncle Charlie Interview
TTITLE12=Mr. Bojangles
TTITLE13=Opus 36
TTITLE14=Santa Rosa
TTITLE15=Propinquity
TTITLE16=Uncle Charlie
TTITLE17=Randy Lynn Rag
TTITLE18=House at Pooh Corner
TTITLE19=Swanee River
TTITLE20=Uncle Charlie Interview #2 and Spanish Fandango
EXTD=
EXTT0=
EXTT1=
EXTT2=
EXTT3=
EXTT4=
EXTT5=
EXTT6=
EXTT7=
EXTT8=
EXTT9=
EXTT10=
EXTT11=
EXTT12=
EXTT13=
EXTT14=
EXTT15=
EXTT16=
EXTT17=
EXTT18=
EXTT19=
EXTT20=
PLAYORDER=
